<svg width="580" height="580" viewBox="0 0 580 580" fill="none" xmlns="http://www.w3.org/2000/svg">
<g filter="url(#filter0_d_86_333)">
<rect x="40" y="36" width="500" height="500" rx="50" fill="url(#paint0_linear_86_333)"/>
<rect x="40.5" y="36.5" width="499" height="499" rx="49.5" stroke="black"/>
</g>
<path d="M150 432V156H249.6C288 156 316.933 167.2 336.4 189.6C355.867 211.733 365.6 246.533 365.6 294C365.6 341.467 355.867 376.4 336.4 398.8C316.933 420.933 288 432 249.6 432H150ZM175.6 409.2H247.2C278.133 409.2 301.067 401.333 316 385.6C330.933 369.6 338.4 343.467 338.4 307.2V280.8C338.4 244.533 330.933 218.533 316 202.8C301.067 186.8 278.133 178.8 247.2 178.8H175.6V409.2Z" fill="black"/>
<path d="M318 436C280.933 436 252.133 424 231.6 400C211.333 376 201.2 340.667 201.2 294C201.2 247.333 211.333 212 231.6 188C252.133 164 280.933 152 318 152C349.467 152 374.8 160.4 394 177.2C413.467 194 425.6 218.533 430.4 250.8H404V247.6C404 234.267 400.933 222.133 394.8 211.2C388.933 200.267 379.6 191.467 366.8 184.8C354.267 178.133 338 174.8 318 174.8C287.333 174.8 264.667 183.467 250 200.8C235.6 217.867 228.4 244.4 228.4 280.4V307.6C228.4 343.6 235.6 370.267 250 387.6C264.667 404.667 287.333 413.2 318 413.2C338 413.2 354.267 409.867 366.8 403.2C379.6 396.267 388.933 387.067 394.8 375.6C400.933 364.133 404 351.6 404 338V334H430.8C426.533 367.333 414.667 392.667 395.2 410C375.733 427.333 350 436 318 436Z" fill="black"/>
<path d="M288.6 432L183.4 156H210.2L301.4 399.6H305.8L397 156H423L317.8 432H288.6Z" fill="black"/>
<defs>
<filter id="filter0_d_86_333" x="0" y="0" width="580" height="580" filterUnits="userSpaceOnUse" color-interpolation-filters="sRGB">
<feFlood flood-opacity="0" result="BackgroundImageFix"/>
<feColorMatrix in="SourceAlpha" type="matrix" values="0 0 0 0 0 0 0 0 0 0 0 0 0 0 0 0 0 0 127 0" result="hardAlpha"/>
<feMorphology radius="20" operator="dilate" in="SourceAlpha" result="effect1_dropShadow_86_333"/>
<feOffset dy="4"/>
<feGaussianBlur stdDeviation="10"/>
<feComposite in2="hardAlpha" operator="out"/>
<feColorMatrix type="matrix" values="0 0 0 0 0 0 0 0 0 0 0 0 0 0 0 0 0 0 0.25 0"/>
<feBlend mode="normal" in2="BackgroundImageFix" result="effect1_dropShadow_86_333"/>
<feBlend mode="normal" in="SourceGraphic" in2="effect1_dropShadow_86_333" result="shape"/>
</filter>
<linearGradient id="paint0_linear_86_333" x1="40" y1="36" x2="540" y2="536" gradientUnits="userSpaceOnUse">
<stop offset="0.197115" stop-color="#169F71"/>
<stop offset="0.488411" stop-color="#1779AB"/>
<stop offset="0.773403" stop-color="#1F2C38"/>
</linearGradient>
</defs>
</svg>
