<svg width="159" height="37" viewBox="0 0 159 37" fill="none" xmlns="http://www.w3.org/2000/svg">
<path d="M10.976 29V7.61H19.005C22.043 7.61 24.3267 8.478 25.856 10.214C27.3853 11.9293 28.15 14.6263 28.15 18.305C28.15 21.9837 27.3853 24.691 25.856 26.427C24.3267 28.1423 22.043 29 19.005 29H10.976ZM13.673 26.706H18.788C20.9993 26.706 22.632 26.148 23.686 25.032C24.7607 23.8953 25.298 22.025 25.298 19.421V17.189C25.298 14.585 24.7607 12.725 23.686 11.609C22.632 10.4723 20.9993 9.904 18.788 9.904H13.673V26.706ZM34.6292 29.31C32.2112 29.31 30.3202 28.566 28.9562 27.078C27.5922 25.59 26.9102 23.4717 26.9102 20.723C26.9102 17.9743 27.5922 15.856 28.9562 14.368C30.3202 12.88 32.2112 12.136 34.6292 12.136C36.9646 12.136 38.7832 12.8283 40.0852 14.213C41.4079 15.577 42.0692 17.5403 42.0692 20.103V21.126H28.6772V19.266H40.9842L39.5272 20.568V20.041C39.5272 18.057 39.1242 16.6 38.3182 15.67C37.5329 14.74 36.3032 14.275 34.6292 14.275C32.9346 14.275 31.6946 14.74 30.9092 15.67C30.1239 16.6 29.7312 18.057 29.7312 20.041V21.343C29.7312 23.327 30.1239 24.7943 30.9092 25.745C31.6946 26.675 32.9346 27.14 34.6292 27.14C35.7246 27.14 36.5822 26.9747 37.2022 26.644C37.8222 26.3133 38.2562 25.9413 38.5042 25.528C38.7729 25.1147 38.9072 24.7943 38.9072 24.567V24.536H41.6042C41.1496 26.086 40.3229 27.2743 39.1242 28.101C37.9256 28.907 36.4272 29.31 34.6292 29.31ZM45.7318 29L39.2218 12.446H41.9498L47.0648 25.776H47.4988L52.5828 12.446H55.2178L48.7078 29H45.7318ZM62.0599 29.31C59.1252 29.31 56.8519 28.38 55.2399 26.52C53.6279 24.66 52.8219 21.9217 52.8219 18.305C52.8219 14.6883 53.6279 11.95 55.2399 10.09C56.8519 8.23 59.1252 7.3 62.0599 7.3C64.5605 7.3 66.5755 7.96133 68.1049 9.284C69.6549 10.6067 70.6055 12.5287 70.9569 15.05H68.1979V14.678C68.1979 13.748 67.9809 12.9007 67.5469 12.136C67.1335 11.3713 66.4722 10.7513 65.5629 10.276C64.6742 9.80067 63.5065 9.563 62.0599 9.563C59.8692 9.563 58.2572 10.183 57.2239 11.423C56.1905 12.6423 55.6739 14.5437 55.6739 17.127V19.483C55.6739 22.0663 56.1905 23.978 57.2239 25.218C58.2572 26.4373 59.8692 27.047 62.0599 27.047C63.5065 27.047 64.6742 26.8093 65.5629 26.334C66.4722 25.838 67.1335 25.187 67.5469 24.381C67.9809 23.575 68.1979 22.6967 68.1979 21.746V21.312H70.9879C70.6572 23.916 69.7169 25.9 68.1669 27.264C66.6375 28.628 64.6019 29.31 62.0599 29.31ZM77.4434 29.31C75.0047 29.31 73.0931 28.566 71.7084 27.078C70.3237 25.59 69.6314 23.4717 69.6314 20.723C69.6314 17.9743 70.3237 15.856 71.7084 14.368C73.0931 12.88 75.0047 12.136 77.4434 12.136C79.8821 12.136 81.7834 12.88 83.1474 14.368C84.5321 15.856 85.2244 17.9743 85.2244 20.723C85.2244 23.4717 84.5321 25.59 83.1474 27.078C81.7834 28.566 79.8821 29.31 77.4434 29.31ZM77.4434 27.14C79.1587 27.14 80.4194 26.675 81.2254 25.745C82.0314 24.7943 82.4344 23.327 82.4344 21.343V20.103C82.4344 18.119 82.0314 16.662 81.2254 15.732C80.4194 14.7813 79.1587 14.306 77.4434 14.306C75.7487 14.306 74.4881 14.7813 73.6614 15.732C72.8554 16.662 72.4524 18.119 72.4524 20.103V21.343C72.4524 23.327 72.8554 24.7943 73.6614 25.745C74.4881 26.675 75.7487 27.14 77.4434 27.14ZM84.8662 29V12.446H87.2532V14.957H87.6872C88.1832 14.027 88.8445 13.3243 89.6712 12.849C90.4979 12.3737 91.5209 12.136 92.7402 12.136C94.5589 12.136 95.9332 12.6733 96.8632 13.748C97.7932 14.802 98.2582 16.3727 98.2582 18.46V29H95.6232V18.987C95.6232 17.3543 95.3029 16.166 94.6622 15.422C94.0215 14.678 92.9882 14.306 91.5622 14.306C90.1569 14.306 89.1235 14.678 88.4622 15.422C87.8215 16.166 87.5012 17.3543 87.5012 18.987V29H84.8662ZM98.7435 29V12.446H101.131V14.957H101.565C102.061 14.027 102.722 13.3243 103.549 12.849C104.375 12.3737 105.398 12.136 106.618 12.136C108.436 12.136 109.811 12.6733 110.741 13.748C111.671 14.802 112.136 16.3727 112.136 18.46V29H109.501V18.987C109.501 17.3543 109.18 16.166 108.54 15.422C107.899 14.678 106.866 14.306 105.44 14.306C104.034 14.306 103.001 14.678 102.34 15.422C101.699 16.166 101.379 17.3543 101.379 18.987V29H98.7435ZM119.286 29.31C116.868 29.31 114.977 28.566 113.613 27.078C112.249 25.59 111.567 23.4717 111.567 20.723C111.567 17.9743 112.249 15.856 113.613 14.368C114.977 12.88 116.868 12.136 119.286 12.136C121.621 12.136 123.44 12.8283 124.742 14.213C126.065 15.577 126.726 17.5403 126.726 20.103V21.126H113.334V19.266H125.641L124.184 20.568V20.041C124.184 18.057 123.781 16.6 122.975 15.67C122.19 14.74 120.96 14.275 119.286 14.275C117.591 14.275 116.351 14.74 115.566 15.67C114.781 16.6 114.388 18.057 114.388 20.041V21.343C114.388 23.327 114.781 24.7943 115.566 25.745C116.351 26.675 117.591 27.14 119.286 27.14C120.381 27.14 121.239 26.9747 121.859 26.644C122.479 26.3133 122.913 25.9413 123.161 25.528C123.43 25.1147 123.564 24.7943 123.564 24.567V24.536H126.261C125.806 26.086 124.98 27.2743 123.781 28.101C122.582 28.907 121.084 29.31 119.286 29.31ZM132.827 29.31C130.451 29.31 128.591 28.5763 127.247 27.109C125.904 25.621 125.232 23.4923 125.232 20.723C125.232 17.9537 125.904 15.8353 127.247 14.368C128.591 12.88 130.451 12.136 132.827 12.136C134.811 12.136 136.423 12.6423 137.663 13.655C138.924 14.647 139.73 16.0833 140.081 17.964H137.415V17.871C137.415 17.375 137.26 16.8583 136.95 16.321C136.64 15.763 136.144 15.2877 135.462 14.895C134.801 14.5023 133.923 14.306 132.827 14.306C131.236 14.306 130.037 14.7813 129.231 15.732C128.446 16.662 128.053 18.1087 128.053 20.072V21.374C128.053 23.3373 128.446 24.7943 129.231 25.745C130.037 26.675 131.236 27.14 132.827 27.14C133.923 27.14 134.801 26.9437 135.462 26.551C136.144 26.1583 136.64 25.6727 136.95 25.094C137.26 24.4947 137.415 23.916 137.415 23.358V23.234H140.112C139.802 25.1973 139.017 26.706 137.756 27.76C136.496 28.7933 134.853 29.31 132.827 29.31ZM143.156 29C141.937 29 141.327 28.3903 141.327 27.171V7.734H143.962V26.985H149.263V29H143.156ZM137.514 14.461V12.446H149.263V14.461H137.514Z" fill="url(#paint0_linear_10_63)"/>
<defs>
<linearGradient id="paint0_linear_10_63" x1="8" y1="0" x2="151" y2="37" gradientUnits="userSpaceOnUse">
<stop stop-color="#1F2C38"/>
<stop offset="0.5" stop-color="#1779AB"/>
<stop offset="1" stop-color="#67C226"/>
</linearGradient>
</defs>
</svg>
