<svg width="24" height="24" viewBox="0 0 24 24" fill="none" xmlns="http://www.w3.org/2000/svg">
<path fill-rule="evenodd" clip-rule="evenodd" d="M18.75 18.9269C19.2105 18.5144 19.5 17.9159 19.5 17.2499V10.4654C19.5001 10.1208 19.421 9.78075 19.2689 9.47153C19.1167 9.1623 18.8956 8.89215 18.6225 8.68193L13.3725 4.64393C12.9791 4.34106 12.4965 4.17683 12 4.17683C11.5035 4.17683 11.0209 4.34106 10.6275 4.64393L5.3775 8.68193C5.10421 8.89231 4.88295 9.16269 4.7308 9.4722C4.57864 9.7817 4.49968 10.122 4.5 10.4669V17.2499C4.49921 17.5447 4.55652 17.8368 4.66866 18.1095C4.7808 18.3821 4.94556 18.63 5.15354 18.839C5.36151 19.0479 5.60863 19.2138 5.88075 19.3272C6.15288 19.4407 6.44469 19.4993 6.7395 19.4999H7.5V14.2499C7.5 13.4543 7.81607 12.6912 8.37868 12.1286C8.94129 11.566 9.70435 11.2499 10.5 11.2499H13.5C14.2956 11.2499 15.0587 11.566 15.6213 12.1286C16.1839 12.6912 16.5 13.4543 16.5 14.2499V19.4999H17.2605C17.832 19.4969 18.3555 19.2809 18.75 18.9269ZM21.75 17.2499C21.75 18.4434 21.2759 19.588 20.432 20.4319C19.5881 21.2758 18.4435 21.7499 17.25 21.7499H6.75C5.55653 21.7499 4.41193 21.2758 3.56802 20.4319C2.72411 19.588 2.25 18.4434 2.25 17.2499V10.4654C2.25005 9.77642 2.40831 9.09663 2.71259 8.47845C3.01686 7.86027 3.45903 7.32022 4.005 6.89993L9.255 2.86193C10.0419 2.25619 11.007 1.92773 12 1.92773C12.993 1.92773 13.9581 2.25619 14.745 2.86193L19.995 6.89993C20.5412 7.32037 20.9835 7.86067 21.2877 8.47912C21.592 9.09758 21.7502 9.77767 21.75 10.4669V17.2499ZM14.25 14.2499C14.25 14.051 14.171 13.8602 14.0303 13.7196C13.8897 13.5789 13.6989 13.4999 13.5 13.4999H10.5C10.3011 13.4999 10.1103 13.5789 9.96967 13.7196C9.82902 13.8602 9.75 14.051 9.75 14.2499V19.4999H14.25V14.2499Z" fill="#67C226"/>
</svg>
