<svg width="103" height="49" viewBox="0 0 103 49" fill="none" xmlns="http://www.w3.org/2000/svg">
<path d="M13.592 33.5V14.87H20.585C23.231 14.87 25.22 15.626 26.552 17.138C27.884 18.632 28.55 20.981 28.55 24.185C28.55 27.389 27.884 29.747 26.552 31.259C25.22 32.753 23.231 33.5 20.585 33.5H13.592ZM15.941 31.502H20.396C22.322 31.502 23.744 31.016 24.662 30.044C25.598 29.054 26.066 27.425 26.066 25.157V23.213C26.066 20.945 25.598 19.325 24.662 18.353C23.744 17.363 22.322 16.868 20.396 16.868H15.941V31.502ZM34.1932 33.77C32.0872 33.77 30.4402 33.122 29.2522 31.826C28.0642 30.53 27.4702 28.685 27.4702 26.291C27.4702 23.897 28.0642 22.052 29.2522 20.756C30.4402 19.46 32.0872 18.812 34.1932 18.812C36.2272 18.812 37.8112 19.415 38.9452 20.621C40.0972 21.809 40.6732 23.519 40.6732 25.751V26.642H29.0092V25.022H39.7282L38.4592 26.156V25.697C38.4592 23.969 38.1082 22.7 37.4062 21.89C36.7222 21.08 35.6512 20.675 34.1932 20.675C32.7172 20.675 31.6372 21.08 30.9532 21.89C30.2692 22.7 29.9272 23.969 29.9272 25.697V26.831C29.9272 28.559 30.2692 29.837 30.9532 30.665C31.6372 31.475 32.7172 31.88 34.1932 31.88C35.1472 31.88 35.8942 31.736 36.4342 31.448C36.9742 31.16 37.3522 30.836 37.5682 30.476C37.8022 30.116 37.9192 29.837 37.9192 29.639V29.612H40.2682C39.8722 30.962 39.1522 31.997 38.1082 32.717C37.0642 33.419 35.7592 33.77 34.1932 33.77ZM43.8632 33.5L38.1932 19.082H40.5692L45.0242 30.692H45.4022L49.8302 19.082H52.1252L46.4552 33.5H43.8632ZM58.0844 33.77C55.5284 33.77 53.5484 32.96 52.1444 31.34C50.7404 29.72 50.0384 27.335 50.0384 24.185C50.0384 21.035 50.7404 18.65 52.1444 17.03C53.5484 15.41 55.5284 14.6 58.0844 14.6C60.2624 14.6 62.0174 15.176 63.3494 16.328C64.6994 17.48 65.5274 19.154 65.8334 21.35H63.4304V21.026C63.4304 20.216 63.2414 19.478 62.8634 18.812C62.5034 18.146 61.9274 17.606 61.1354 17.192C60.3614 16.778 59.3444 16.571 58.0844 16.571C56.1764 16.571 54.7724 17.111 53.8724 18.191C52.9724 19.253 52.5224 20.909 52.5224 23.159V25.211C52.5224 27.461 52.9724 29.126 53.8724 30.206C54.7724 31.268 56.1764 31.799 58.0844 31.799C59.3444 31.799 60.3614 31.592 61.1354 31.178C61.9274 30.746 62.5034 30.179 62.8634 29.477C63.2414 28.775 63.4304 28.01 63.4304 27.182V26.804H65.8604C65.5724 29.072 64.7534 30.8 63.4034 31.988C62.0714 33.176 60.2984 33.77 58.0844 33.77ZM71.483 33.77C69.359 33.77 67.694 33.122 66.488 31.826C65.282 30.53 64.679 28.685 64.679 26.291C64.679 23.897 65.282 22.052 66.488 20.756C67.694 19.46 69.359 18.812 71.483 18.812C73.607 18.812 75.263 19.46 76.451 20.756C77.657 22.052 78.26 23.897 78.26 26.291C78.26 28.685 77.657 30.53 76.451 31.826C75.263 33.122 73.607 33.77 71.483 33.77ZM71.483 31.88C72.977 31.88 74.075 31.475 74.777 30.665C75.479 29.837 75.83 28.559 75.83 26.831V25.751C75.83 24.023 75.479 22.754 74.777 21.944C74.075 21.116 72.977 20.702 71.483 20.702C70.007 20.702 68.909 21.116 68.189 21.944C67.487 22.754 67.136 24.023 67.136 25.751V26.831C67.136 28.559 67.487 29.837 68.189 30.665C68.909 31.475 70.007 31.88 71.483 31.88ZM77.948 33.5V19.082H80.027V21.269H80.405C80.837 20.459 81.413 19.847 82.133 19.433C82.853 19.019 83.744 18.812 84.806 18.812C86.39 18.812 87.587 19.28 88.397 20.216C89.207 21.134 89.612 22.502 89.612 24.32V33.5H87.317V24.779C87.317 23.357 87.038 22.322 86.48 21.674C85.922 21.026 85.022 20.702 83.78 20.702C82.556 20.702 81.656 21.026 81.08 21.674C80.522 22.322 80.243 23.357 80.243 24.779V33.5H77.948Z" fill="url(#paint0_linear_10_67)"/>
<defs>
<linearGradient id="paint0_linear_10_67" x1="11" y1="11" x2="92" y2="41" gradientUnits="userSpaceOnUse">
<stop stop-color="#1F2C38"/>
<stop offset="0.5" stop-color="#1779AB"/>
<stop offset="1" stop-color="#67C226"/>
</linearGradient>
</defs>
</svg>
