<svg width="280" height="73" viewBox="0 0 280 73" fill="none" xmlns="http://www.w3.org/2000/svg">
<path d="M5.856 58V15.91H21.655C27.633 15.91 32.1267 17.618 35.136 21.034C38.1453 24.4093 39.65 29.7163 39.65 36.955C39.65 44.1937 38.1453 49.521 35.136 52.937C32.1267 56.3123 27.633 58 21.655 58H5.856ZM11.163 53.486H21.228C25.5793 53.486 28.792 52.388 30.866 50.192C32.9807 47.9553 34.038 44.275 34.038 39.151V34.759C34.038 29.635 32.9807 25.975 30.866 23.779C28.792 21.5423 25.5793 20.424 21.228 20.424H11.163V53.486ZM52.3995 58.61C47.6415 58.61 43.9205 57.146 41.2365 54.218C38.5525 51.29 37.2105 47.1217 37.2105 41.713C37.2105 36.3043 38.5525 32.136 41.2365 29.208C43.9205 26.28 47.6415 24.816 52.3995 24.816C56.9948 24.816 60.5735 26.1783 63.1355 28.903C65.7381 31.587 67.0395 35.4503 67.0395 40.493V42.506H40.6875V38.846H64.9045L62.0375 41.408V40.371C62.0375 36.467 61.2445 33.6 59.6585 31.77C58.1131 29.94 55.6935 29.025 52.3995 29.025C49.0648 29.025 46.6248 29.94 45.0795 31.77C43.5341 33.6 42.7615 36.467 42.7615 40.371V42.933C42.7615 46.837 43.5341 49.7243 45.0795 51.595C46.6248 53.425 49.0648 54.34 52.3995 54.34C54.5548 54.34 56.2425 54.0147 57.4625 53.364C58.6825 52.7133 59.5365 51.9813 60.0245 51.168C60.5531 50.3547 60.8175 49.7243 60.8175 49.277V49.216H66.1245C65.2298 52.266 63.6031 54.6043 61.2445 56.231C58.8858 57.817 55.9375 58.61 52.3995 58.61ZM74.2465 58L61.4365 25.426H66.8045L76.8695 51.656H77.7235L87.7275 25.426H92.9125L80.1025 58H74.2465ZM106.376 58.61C100.601 58.61 96.1279 56.78 92.9559 53.12C89.7839 49.46 88.1979 44.0717 88.1979 36.955C88.1979 29.8383 89.7839 24.45 92.9559 20.79C96.1279 17.13 100.601 15.3 106.376 15.3C111.297 15.3 115.262 16.6013 118.271 19.204C121.321 21.8067 123.192 25.5887 123.883 30.55H118.454V29.818C118.454 27.988 118.027 26.3207 117.173 24.816C116.36 23.3113 115.058 22.0913 113.269 21.156C111.52 20.2207 109.223 19.753 106.376 19.753C102.065 19.753 98.8932 20.973 96.8599 23.413C94.8266 25.8123 93.8099 29.5537 93.8099 34.637V39.273C93.8099 44.3563 94.8266 48.118 96.8599 50.558C98.8932 52.9573 102.065 54.157 106.376 54.157C109.223 54.157 111.52 53.6893 113.269 52.754C115.058 51.778 116.36 50.497 117.173 48.911C118.027 47.325 118.454 45.5967 118.454 43.726V42.872H123.944C123.293 47.996 121.443 51.9 118.393 54.584C115.384 57.268 111.378 58.61 106.376 58.61ZM136.647 58.61C131.848 58.61 128.086 57.146 125.362 54.218C122.637 51.29 121.275 47.1217 121.275 41.713C121.275 36.3043 122.637 32.136 125.362 29.208C128.086 26.28 131.848 24.816 136.647 24.816C141.445 24.816 145.187 26.28 147.871 29.208C150.595 32.136 151.958 36.3043 151.958 41.713C151.958 47.1217 150.595 51.29 147.871 54.218C145.187 57.146 141.445 58.61 136.647 58.61ZM136.647 54.34C140.022 54.34 142.503 53.425 144.089 51.595C145.675 49.7243 146.468 46.837 146.468 42.933V40.493C146.468 36.589 145.675 33.722 144.089 31.892C142.503 30.0213 140.022 29.086 136.647 29.086C133.312 29.086 130.831 30.0213 129.205 31.892C127.619 33.722 126.826 36.589 126.826 40.493V42.933C126.826 46.837 127.619 49.7243 129.205 51.595C130.831 53.425 133.312 54.34 136.647 54.34ZM151.253 58V25.426H155.95V30.367H156.804C157.78 28.537 159.081 27.1543 160.708 26.219C162.335 25.2837 164.348 24.816 166.747 24.816C170.326 24.816 173.03 25.8733 174.86 27.988C176.69 30.062 177.605 33.1527 177.605 37.26V58H172.42V38.297C172.42 35.0843 171.79 32.746 170.529 31.282C169.268 29.818 167.235 29.086 164.429 29.086C161.664 29.086 159.63 29.818 158.329 31.282C157.068 32.746 156.438 35.0843 156.438 38.297V58H151.253ZM178.56 58V25.426H183.257V30.367H184.111C185.087 28.537 186.388 27.1543 188.015 26.219C189.642 25.2837 191.655 24.816 194.054 24.816C197.633 24.816 200.337 25.8733 202.167 27.988C203.997 30.062 204.912 33.1527 204.912 37.26V58H199.727V38.297C199.727 35.0843 199.097 32.746 197.836 31.282C196.575 29.818 194.542 29.086 191.736 29.086C188.971 29.086 186.937 29.818 185.636 31.282C184.375 32.746 183.745 35.0843 183.745 38.297V58H178.56ZM218.982 58.61C214.224 58.61 210.503 57.146 207.819 54.218C205.135 51.29 203.793 47.1217 203.793 41.713C203.793 36.3043 205.135 32.136 207.819 29.208C210.503 26.28 214.224 24.816 218.982 24.816C223.577 24.816 227.156 26.1783 229.718 28.903C232.321 31.587 233.622 35.4503 233.622 40.493V42.506H207.27V38.846H231.487L228.62 41.408V40.371C228.62 36.467 227.827 33.6 226.241 31.77C224.696 29.94 222.276 29.025 218.982 29.025C215.647 29.025 213.207 29.94 211.662 31.77C210.117 33.6 209.344 36.467 209.344 40.371V42.933C209.344 46.837 210.117 49.7243 211.662 51.595C213.207 53.425 215.647 54.34 218.982 54.34C221.137 54.34 222.825 54.0147 224.045 53.364C225.265 52.7133 226.119 51.9813 226.607 51.168C227.136 50.3547 227.4 49.7243 227.4 49.277V49.216H232.707C231.812 52.266 230.186 54.6043 227.827 56.231C225.468 57.817 222.52 58.61 218.982 58.61ZM245.628 58.61C240.951 58.61 237.291 57.1663 234.648 54.279C232.005 51.351 230.683 47.1623 230.683 41.713C230.683 36.2637 232.005 32.0953 234.648 29.208C237.291 26.28 240.951 24.816 245.628 24.816C249.532 24.816 252.704 25.8123 255.144 27.805C257.625 29.757 259.211 32.5833 259.902 36.284H254.656V36.101C254.656 35.125 254.351 34.1083 253.741 33.051C253.131 31.953 252.155 31.0177 250.813 30.245C249.512 29.4723 247.783 29.086 245.628 29.086C242.497 29.086 240.138 30.0213 238.552 31.892C237.007 33.722 236.234 36.5687 236.234 40.432V42.994C236.234 46.8573 237.007 49.7243 238.552 51.595C240.138 53.425 242.497 54.34 245.628 54.34C247.783 54.34 249.512 53.9537 250.813 53.181C252.155 52.4083 253.131 51.4527 253.741 50.314C254.351 49.1347 254.656 47.996 254.656 46.898V46.654H259.963C259.353 50.5173 257.808 53.486 255.327 55.56C252.846 57.5933 249.613 58.61 245.628 58.61ZM265.953 58C263.554 58 262.354 56.8003 262.354 54.401V16.154H267.539V54.035H277.97V58H265.953ZM254.851 29.391V25.426H277.97V29.391H254.851Z" fill="url(#paint0_linear_10_58)"/>
<defs>
<linearGradient id="paint0_linear_10_58" x1="0" y1="0" x2="280" y2="73" gradientUnits="userSpaceOnUse">
<stop stop-color="#1F2C38"/>
<stop offset="0.5" stop-color="#1779AB"/>
<stop offset="1" stop-color="#67C226"/>
</linearGradient>
</defs>
</svg>
